<?xml version="1.0" encoding="utf-8"?>
<!-- Generator: Adobe Illustrator 18.1.0, SVG Export Plug-In . SVG Version: 6.00 Build 0)  -->
<!DOCTYPE svg PUBLIC "-//W3C//DTD SVG 1.1//EN" "http://www.w3.org/Graphics/SVG/1.1/DTD/svg11.dtd">
<svg version="1.1" id="Layer_1" xmlns="http://www.w3.org/2000/svg" xmlns:xlink="http://www.w3.org/1999/xlink" x="0px" y="0px"
	 viewBox="0 0 305 256" enable-background="new 0 0 305 256" xml:space="preserve">
<path fill-rule="evenodd" clip-rule="evenodd" d="M220.6,196.4c-18.5,18.2-44,29.2-72,28.5c-26.4-0.7-50.1-11.7-67.3-29
	c-9.9,1.1-19.7,2.4-29.5,4c0.4,0.5,0.8,1.1,1.2,1.6c-1.6,2.4-3,4.7-2.4,5.5c1.3,1.6,2.6,3.2,3.9,4.8c0.7,0.8,3.1-0.4,5.6-1.6
	c2.8,3.1,5.7,6,8.7,8.8c-1,2.6-2,5.2-1.2,5.9c1.6,1.3,3.1,2.7,4.7,3.9c0.8,0.6,3.1-0.9,5.4-2.4c3.3,2.5,6.7,4.8,10.3,7
	c-0.6,2.7-1.2,5.4-0.4,5.9c1.8,1,3.6,2,5.5,3c0.9,0.5,3-1.4,5-3.4c3.8,1.8,7.6,3.5,11.6,4.9c-0.1,2.8-0.3,5.5,0.7,5.8
	c2,0.7,4,1.3,6,1.9c1,0.3,2.6-2,4.3-4.3c4.1,1.1,8.3,1.9,12.6,2.6c0.4,2.7,0.9,5.4,2,5.6c2.2,0.3,4.3,0.5,6.5,0.7
	c1.1,0.1,2.1-2.5,3.1-5.1c1.2,0.1,2.4,0.1,3.6,0.2c3.2,0.1,6.5,0,9.6-0.1c1.1,2.6,2.3,5.1,3.4,5c2.2-0.2,4.3-0.4,6.4-0.6
	c1.1-0.1,1.5-2.8,2-5.6c4.3-0.6,8.4-1.5,12.5-2.5c1.6,2.3,3.2,4.6,4.2,4.3c2-0.6,4-1.2,6-1.9c1-0.3,0.9-3.1,0.8-5.8
	c3.9-1.4,7.8-3,11.6-4.8c2,2,4,3.9,4.9,3.4c1.8-0.9,3.7-1.9,5.5-2.9c0.9-0.5,0.3-3.2-0.2-6c3.5-2.1,7-4.5,10.3-6.9
	c2.3,1.6,4.5,3.2,5.3,2.6c1.6-1.3,3.2-2.6,4.8-3.9c0.8-0.7-0.3-3.2-1.3-5.8c3.1-2.8,6-5.7,8.8-8.7c2.5,1.2,5,2.3,5.7,1.5
	c1.3-1.5,2.7-3.1,3.9-4.7c0.6-0.8-0.9-3.1-2.4-5.4c0.4-0.6,0.8-1.1,1.2-1.7C240.9,198.8,230.7,197.5,220.6,196.4z"/>
<path fill-rule="evenodd" clip-rule="evenodd" d="M69.7,108.6c0.1-1.1-8.9-2-15.1-2.6c-0.2,0.9-0.4,1.8-0.5,2.7
	c4.3,0.1,8.4,0.5,12.9,0.8C67.7,109.6,69.6,109.7,69.7,108.6z"/>
<path d="M53.4,105.9c0.4,0,0.8,0.1,1.2,0.1c0.1-0.7,0.3-1.4,0.5-2.2C54.5,104.5,53.9,105.2,53.4,105.9z"/>
<path fill-rule="evenodd" clip-rule="evenodd" d="M123.3,69.4c0.5,0,1,0.1,1.5,0.1c4.4,0.3,13,1.3,13.3,2.3c0.4,0.9-2.2,0.9-2.7,0.9
	c-4.2-0.2-8.3-0.3-12.4-0.4c-1.1,0-2.1,0-3.2,0c-1.5,1.1-2.3,1.7-3.9,3.1c1.7,0.1,3.3,0.2,5,0.3c4.4,0.4,13.5,1.8,13.3,2.8
	c-0.1,1-3.5,0.6-4,0.6c-4.2-0.2-7.3,0.3-11.5,0.2c-2.3-0.1-4.2-0.4-6.5-0.3c-1.4,1.4-2.4,2.1-3.8,3.6c6.9,0.4,19.6,1.7,19.5,3
	c-0.1,1.3-4.6,0.5-5.4,0.4c-4.8-0.3-8.8,0.1-13.5,0c-1.2,0-2.5,0-3.8-0.1c-1.4,1.5-1.9,2-3.3,3.6c0.4,0,0.9,0,1.3,0
	c6.2,0.4,19.4,1.8,19.6,3c0.1,1.2-4.6,1.1-5.5,1c-4.8-0.3-8.3-0.4-13-0.5c-1.7,0-3.4-0.3-5.1-0.3c-1.7,1.9-2.8,3-4.5,4.9
	c6.6,0.4,20.4,3.1,20,4.2c-0.4,1-7.7,0.1-8.5,0.1c-4.8-0.3-6.9-0.7-11.6-0.8c-0.9,0-1.8,0-2.7,0c-1.5,1.8-2.2,2.5-3.7,4.3
	c5.5,0.4,17.9,1.1,17.8,2.7c0,1.1-6.4,0.8-7.2,0.8c-4.6-0.3-8.8-0.6-13.3-0.7c-1.7,2.1-2.4,3.4-4,5.3c4.8,0.4,13.6,1.2,13.6,2.2
	c0,1-1.8,1.1-6.1,1.2c-3.9,0.1-5.8-0.5-9.6-0.6c-2.5,3.1-4.4,5.1-6.2,7.3c39,0,60.1,0,74.7,0c-1.1-2.7-4.6-11.8-4.5-19.8
	c0.1-6.7,4.8-10,16.4-11.5c18-2.3,26.6-9.8,6.6-15.3c-13.5-1-21.8-10.9-35-10.9C129.4,66,126.5,67.3,123.3,69.4z"/>
<path fill-rule="evenodd" clip-rule="evenodd" d="M56.7,130.3l-4.2,0.2l-6.7,0.4l-10.9-2l-0.9,2.4l0.9,2.4l6.2,2.5l1.3,23.6
	l-0.1,5.3l-10.1-12.8l-2-4.1c-0.1-0.7-0.2-1.5-0.4-2.3c-0.3,0-0.5-0.1-0.8-0.1l-4.5-9.3l-3.6-7.4l-2-3.7l-18.1,1L0,129l0.9,2.4
	l7.2,1.3l1.5,27.2l-1.3,36l-6.2,1.1l-0.9,2.4l0.9,2.4l10.9-0.6l10.9,0.6l0.9-2.4l-0.9-2.4l-6.3-1.1l-1.2-36l0.3-4.9l8,8.6l13.7,24.8
	c0.6,1.1,1.2,2.2,1.8,3.3c0.1,0.1,0.2,0.2,0.4,0.3l2.7,3.1l3.8-2.1l3.3-1.8l-1.2-31.2l1.2-23.6l2.5-0.4l3.8-0.7l0.9-2.4L56.7,130.3z
	"/>
<polygon fill-rule="evenodd" clip-rule="evenodd" points="102.1,169.7 99.9,170.7 99,179.1 82.3,181.8 81.1,164.7 96.6,162.2 
	97.6,159.8 96.6,157.4 81.1,154.9 82.3,138 99,140.7 99.9,149 102.1,150.1 104.3,149 105.2,130.2 75.4,130.9 62.3,130.3 61.4,132.8 
	62.3,135.2 68.5,136.3 69.8,159.9 68.7,180.4 68.5,183.5 62.3,184.6 61.4,187 62.3,189.4 74.9,188.8 75.4,188.8 105.2,189.5 
	104.3,170.7 "/>
<polygon fill-rule="evenodd" clip-rule="evenodd" points="184.1,182.6 179.1,172.1 170.2,131.3 166.8,129.2 163.3,131.1 
	147.4,170.5 134.4,134.7 132.2,130.8 120.3,131.8 119.4,133.5 120.3,135.3 123.9,145.8 122,152.4 109.4,186.5 112.4,190.8 
	117.8,189.2 127.6,158 134.8,172.6 136.7,189.1 148,190.7 151.4,187.2 150.3,183.6 161.7,158 168.2,172.8 170.2,189.5 190.4,188.5 
	191.3,186 190.4,183.6 "/>
<path d="M244.9,166.1l-0.6-1.3l-1.5-3.4l-4-3.9l-4.6-2.2l3.4-3.5l2.8-5.8l-0.2-5.6l-1.3-4.4l-5.9-4.7l-7.8-0.9h-5l-11.2,0.6
	l-13.1-0.6l-0.9,2.4l0.9,2.4l6.2,1.1l1.3,23.6l-1.3,23.6l-6.2,1.1l-0.9,2.4l0.9,2.4l13.1-0.6l16.2,1l4.1-0.7l4.1-0.7l6.5-4.1
	l5.1-10.9L244.9,166.1z M215.3,138l5.5-0.9l2.8,0.3l3.4,1.1l2.4,2.1l1.5,2.7l0.1,2.8l-1.5,3.7l-3.1,2.3l-4.3,1.1l-4.3-0.8l-3.6-4
	L215.3,138z M231.5,174l-1.5,3.1l-3.1,2.7l-4.4,1.1l-4,0.2l-3.1-1.1l-1.1-19.4l3.7,0.1l4,0.3l4.9,1.1l3.1,3.3l2.1,3.7L231.5,174z"/>
<path fill-rule="evenodd" clip-rule="evenodd" d="M304,196.9l-6.2-1l-8.4-23.8l-10-31.4l-1.4-4.4l-1.8-5.7l-1.4-1.7l-1.9-2.2
	l-11.1,1l-1,1.8l1,1.8l4.2,6.8l-22.7,51.9l3.7,4.4l4.6-1.2l8-17.6l6-0.5l4-0.3l9.3,0.6l9,27.5l16.3-1l1-2.5L304,196.9z M272.5,166.6
	l-9.9-0.9l7.1-18.2l6.8,18.6L272.5,166.6z"/>
<path d="M279,111.8c-0.1-1.1-2.8-1.4-5.5-1.7c-0.6-4.3-1.5-8.5-2.5-12.6c2.3-1.8,4.5-3.5,4.2-4.5c-0.6-2-1.2-4-1.9-6
	c-0.3-1-3.1-0.9-5.8-0.8c-1.4-3.9-3-7.8-4.8-11.6c2-2,3.9-4,3.4-4.9c-0.9-1.8-1.9-3.7-2.9-5.5c-0.5-0.9-3.1-0.2-5.8,0.5
	c-2.1-3.6-4.4-7-6.9-10.3c1.5-2.4,3-4.8,2.3-5.6c-1.3-1.6-2.6-3.2-3.9-4.8c-0.7-0.8-3.2,0.3-5.8,1.4c-2.8-3.1-5.7-6-8.7-8.8
	c1.1-2.5,2.2-5,1.5-5.7c-1.6-1.3-3.1-2.7-4.7-3.9c-0.8-0.6-3,1-5.2,2.6c-3.3-2.5-6.7-4.8-10.2-6.9c0.5-2.8,1-5.5,0-6.1
	c-1.8-1-3.6-2-5.5-3c-0.9-0.5-2.9,1.4-5,3.4c-3.8-1.8-7.6-3.5-11.6-4.9c0.1-2.8,0.2-5.5-0.8-5.8c-2-0.7-4-1.3-6-1.9
	c-1-0.3-2.6,2-4.3,4.3c-4.1-1.1-8.3-1.9-12.6-2.6c-0.4-2.7-0.9-5.4-2-5.6c-2.2-0.3-4.3-0.5-6.5-0.7c-1.1-0.1-2.2,2.5-3.4,5
	C157.2,5,156,5,154.9,4.9c-3.3-0.1-6.6,0-9.9,0.1c-1-2.6-2-5.1-3.1-5.1c-2.2,0.2-4.3,0.4-6.4,0.6c-1.1,0.1-1.6,2.8-2.2,5.6
	c-4.3,0.6-8.4,1.5-12.5,2.6c-1.5-2.3-3-4.6-4-4.3c-2,0.6-4,1.2-6,1.9c-1,0.3-1,3.1-1,5.9c-3.9,1.4-7.8,3.1-11.5,4.9
	c-1.9-2-3.8-4-4.7-3.5c-1.8,0.9-3.7,1.9-5.5,2.9c-0.9,0.5-0.4,3.2,0.2,6c-3.5,2.1-7,4.5-10.3,6.9c-2.2-1.6-4.5-3.2-5.3-2.6
	c-1.6,1.3-3.2,2.6-4.8,3.9c-0.8,0.7,0.3,3.2,1.4,5.8c-3.1,2.8-6,5.7-8.8,8.7c-2.5-1.1-5-2.3-5.7-1.5c-1.3,1.6-2.7,3.1-3.9,4.7
	c-0.6,0.8,1,2.9,2.7,5.1c-2.5,3.3-4.8,6.7-7,10.2c-2.8-0.4-5.6-0.9-6.1,0c-1,1.8-2,3.6-3,5.5c-0.5,0.9,1.4,3.1,3.2,5.3
	c-1.8,3.8-3.4,7.6-4.9,11.6c-2.7-0.3-5.4-0.6-5.7,0.4c-0.7,2-1.3,4-1.9,6c-0.3,1,2,2.5,4.4,4c-1.1,4.1-2,8.3-2.6,12.6
	c-2.8,0.6-5.5,1.2-5.6,2.3c-0.3,2.2-0.5,4.3-0.7,6.5c-0.1,0.7,0.9,1.4,2.3,2.1c4.6,0.6,9.4,1.1,14.4,1.6c4,0.4,8,0.7,12.1,1.1
	c3.7,0.3,7.5,0.6,11.3,0.8c2,0,3.8,0,5.1,0c16.4-19.2,22.5-26.8,37-43.6c-2-5-10.2-10-14-10c-1.9,0-4.2,1-6.8,2.7
	c1.9,0.4,8.7,1.8,8.1,2.2c-1.3,0.9-2.9,0.5-3.3,0.5c-2.6-0.1-5.2-0.3-7.8-0.4c-1.6,1.3-3.2,2.7-4.9,4.3c3.2,0.5,10.1,1.2,9.9,2.3
	c-0.2,1-1,1.1-1.5,1c-3.8-0.2-7.4-0.4-11.2-0.5c-1.8,1.8-3.6,3.8-5.5,5.8c5.2,0.5,15,2.3,14.8,3.3c-0.2,1-3.2,0.2-4.1,0.1
	c-4.5-0.3-8.7-0.7-13.1-0.8c-1.7,1.9-3.4,3.9-5.1,5.9c5.3,0.5,15.2,1.9,15.2,3.3c-0.1,1.3-3.2,0.2-4.1,0.1
	c-4.6-0.3-8.8-0.7-13.2-0.8c-1.2,1.4-2.5,3.4-3.6,4.8c2.3,0.1,14.8,0.9,14.6,2.6c-0.2,1.5-15.6-0.3-15.6-0.3l0.6-2.8
	c10.6-44.4,51.1-77,98.6-75.7c45.4,1.2,82.8,32.8,93.2,74.8c-13.6-17.9-30.8-38.5-43.3-38.4c-3.8,0-7.4,0.8-11,2c3,0.4,8.8-0.3,9,2
	c0.1,1.5-2.9,0.8-3.8,0.7c-3.2-0.2-7.6-0.3-10.6-0.5c-1.9,0.8-2.7,1-4.5,1.8c4,0.4,12.8,1.3,13,3.5c0.2,1.4-5.5,0.6-6.3,0.6
	c-3.9-0.2-7.6-0.5-11.4-0.6c-4.1,2-7.4,2.2-11.5,3.4c20.6-1,22.5,15,13.4,19.2c-9,4.2-21.4,5.6-18.6,10.7
	c3.1,5.6,11.4,11.9,26.4,16.7c10.2,0,23.7,0,44.7,0c6-0.3,11.8-0.7,17.4-1.1c4.1-0.3,8-0.6,11.9-0.9c5.5-0.4,10.9-0.9,15.9-1.4
	c1.3-0.7,2.1-1.3,2.1-2C279.5,116.1,279.3,113.9,279,111.8z"/>
</svg>
